<svg xmlns="http://www.w3.org/2000/svg"  viewBox="0 0 128 128" width="256px" height="256px"><path fill="#FFF" d="M79,119H49c-8.3,0-15-6.7-15-15V9h60v95C94,112.3,87.3,119,79,119z"/><path fill="#B0C5DA" d="M79,119L79,119L79,9h15v95C94,112.3,87.3,119,79,119z"/><path fill="#E8EDF3" d="M64 9H79V119H64z"/><path fill="#454B54" d="M94,122c-1.7,0-3-1.3-3-3V12H37v92c0,1.7-1.3,3-3,3s-3-1.3-3-3V9c0-1.7,1.3-3,3-3h60c1.7,0,3,1.3,3,3 v110C97,120.7,95.7,122,94,122z"/><path fill="#FFF" d="M99,49L99,49c-8.3,0-15-6.7-15-15v0H44v0c0,8.3-6.7,15-15,15h0C18,49,9,40,9,29v0C9,18,18,9,29,9h70 c11,0,20,9,20,20v0C119,40,110,49,99,49z"/><path fill="#B0C5DA" d="M84,34H44v0c-0.3-5-4.5-9-9.5-9L29,25h70h-6C88,25,84,29,84,34L84,34z"/><path fill="#454B54" d="M84,37H59c-1.7,0-3-1.3-3-3s1.3-3,3-3h25c1.7,0,3,1.3,3,3S85.7,37,84,37z"/><path fill="#454B54" d="M99,52c-9.9,0-18-8.1-18-18c0-6.6,5.4-12,12-12h6c1.7,0,3,1.3,3,3s-1.3,3-3,3h-6c-3.3,0-6,2.7-6,6 c0,6.6,5.4,12,12,12c9.4,0,17-7.6,17-17s-7.6-17-17-17H29c-9.4,0-17,7.6-17,17s7.6,17,17,17c6.6,0,12-5.4,12-12c0-3.3-2.7-6-6-6 h-6c-1.7,0-3-1.3-3-3s1.3-3,3-3h6c6.6,0,12,5.4,12,12c0,9.9-8.1,18-18,18C16.3,52,6,41.7,6,29S16.3,6,29,6h70 c12.7,0,23,10.3,23,23S111.7,52,99,52z"/><path fill="#454B54" d="M79 102c-1.7 0-3-1.3-3-3V34c0-1.7 1.3-3 3-3s3 1.3 3 3v65C82 100.7 80.7 102 79 102zM64 72c-1.7 0-3-1.3-3-3V34c0-1.7 1.3-3 3-3s3 1.3 3 3v35C67 70.7 65.7 72 64 72zM64 92c-.8 0-1.6-.3-2.1-.9C61.3 90.6 61 89.8 61 89s.3-1.6.9-2.1c1.1-1.1 3.1-1.1 4.2 0 .6.6.9 1.3.9 2.1s-.3 1.6-.9 2.1C65.6 91.7 64.8 92 64 92zM99 28H51.5c-1.7 0-3-1.3-3-3s1.3-3 3-3H99c1.7 0 3 1.3 3 3S100.7 28 99 28z"/></svg>