<?xml version="1.0" encoding="UTF-8"?>
<svg xmlns="http://www.w3.org/2000/svg" xmlns:xlink="http://www.w3.org/1999/xlink" width="30pt" height="30pt" viewBox="0 0 30 30" version="1.1">
<g id="surface21901170">
<path style=" stroke:none;fill-rule:nonzero;fill:rgb(92.54902%,10.980392%,14.117648%);fill-opacity:1;" d="M 7.980469 5.980469 C 7.164062 5.980469 6.433594 6.476562 6.128906 7.230469 C 5.820312 7.984375 6.003906 8.847656 6.585938 9.414062 L 12.171875 15 L 6.585938 20.585938 C 6.0625 21.085938 5.851562 21.832031 6.035156 22.535156 C 6.21875 23.234375 6.765625 23.78125 7.464844 23.964844 C 8.167969 24.148438 8.914062 23.9375 9.414062 23.414062 L 15 17.828125 L 20.585938 23.414062 C 21.085938 23.9375 21.832031 24.148438 22.535156 23.964844 C 23.234375 23.78125 23.78125 23.234375 23.964844 22.535156 C 24.148438 21.832031 23.9375 21.085938 23.414062 20.585938 L 17.828125 15 L 23.414062 9.414062 C 24.003906 8.839844 24.183594 7.960938 23.863281 7.199219 C 23.539062 6.441406 22.785156 5.957031 21.960938 5.980469 C 21.441406 5.996094 20.949219 6.214844 20.585938 6.585938 L 15 12.171875 L 9.414062 6.585938 C 9.035156 6.199219 8.519531 5.980469 7.980469 5.980469 Z M 7.980469 5.980469 "/>
</g>
</svg>
