<svg xmlns="http://www.w3.org/2000/svg" width="32" height="32" viewBox="0 0 32 32"><g stroke="#0572e4" transform="matrix(.82142 0 0 .8204 2.447 -835.801)"><path fill="#f28e8d" stroke="none" d="m -162.28516,464.5625 c 1.54425,0 2.78516,1.23899 2.78516,2.78125 -1.3e-4,0.007 -1.3e-4,0.013 0,0.0195 l 0,13.07227 c -3.7e-4,0.0111 -3.7e-4,0.0221 0,0.0332 1e-5,1.39992 -1.03221,2.57706 -2.42188,2.75977 -1.20563,0.1585 -2.34173,-0.47588 -2.85937,-1.5293 0.0631,-0.0135 0.12669,-0.0203 0.18945,-0.0371 0.64534,-0.17296 0.38558,-1.13976 -0.25976,-0.9668 -0.94238,0.25219 -1.94467,-0.009 -2.64844,-0.67969 -0.54084,-0.51861 -0.83582,-1.22284 -0.84961,-1.95312 0.24498,0.11512 0.49849,0.21757 0.76563,0.28906 0.66397,0.20693 0.93673,-0.81384 0.25781,-0.96484 -1.33013,-0.35597 -2.33958,-1.43374 -2.60547,-2.7832 -0.22972,-1.16582 0.13217,-2.3542 0.94141,-3.19336 0.18278,0.3888 0.4271,0.75367 0.74218,1.06836 0.47186,0.48994 1.19818,-0.23638 0.70703,-0.70704 -0.79962,-0.79865 -1.03525,-1.99479 -0.5996,-3.0371 0.37141,-0.88857 1.1683,-1.50583 2.0957,-1.66602 -0.007,0.0924 -0.0274,0.18131 -0.0274,0.27539 0,0.66714 1.00196,0.66714 1.00196,0 0,-1.54226 1.24091,-2.78125 2.78515,-2.78125 z m 6.57032,0 c 1.54424,0 2.78515,1.23899 2.78515,2.78125 0,0.66714 1.00196,0.66714 1.00196,0 0,-0.0941 -0.0205,-0.18301 -0.0274,-0.27539 0.9274,0.16019 1.72429,0.77745 2.0957,1.66602 0.43565,1.04231 0.20002,2.23845 -0.5996,3.0371 -0.47195,0.47206 0.23703,1.1791 0.70898,0.70704 0.31508,-0.31469 0.55745,-0.67956 0.74023,-1.06836 0.80924,0.83916 1.17113,2.02754 0.94141,3.19336 -0.26589,1.34946 -1.27534,2.42723 -2.60547,2.7832 -0.67892,0.151 -0.40616,1.17177 0.25781,0.96484 0.26714,-0.0715 0.52065,-0.17394 0.76563,-0.28906 -0.0138,0.73028 -0.30877,1.43451 -0.84961,1.95312 -0.70377,0.67117 -1.70606,0.93188 -2.64844,0.67969 -0.64534,-0.17296 -0.9051,0.79384 -0.25976,0.9668 0.0628,0.0168 0.12632,0.0236 0.18945,0.0371 -0.51764,1.05342 -1.65374,1.6878 -2.85937,1.5293 -1.38967,-0.18271 -2.42189,-1.35985 -2.42188,-2.75977 3.7e-4,-0.0111 3.7e-4,-0.0221 0,-0.0332 l 0,-13.07227 0,-0.0195 c 0,-1.54226 1.24091,-2.78125 2.78516,-2.78125 z" color="#000" font-family="sans-serif" font-weight="400" overflow="visible" transform="matrix(1.2174 0 0 1.21892 210.067 460.205)" white-space="normal" style="line-height:normal;text-indent:0;text-align:start;text-decoration-line:none;text-decoration-style:solid;text-decoration-color:#000;text-transform:none;block-progression:tb;isolation:auto;mix-blend-mode:normal"/><path fill="none" stroke-linecap="round" stroke-linejoin="round" stroke-width="1.218" d="m 16.500041,1029.8622 0,16"/><path fill="#df5d59" stroke="none" d="m -162.28516,463.5625 c -1.62637,0 -3.00693,1.03973 -3.54101,2.48242 -1.42182,0.0966 -2.68532,0.97519 -3.24024,2.30274 -0.27061,0.64743 -0.34034,1.33999 -0.24218,2.00586 -1.30837,1.07121 -1.93385,2.77489 -1.60547,4.4414 0.21059,1.06879 0.78913,2.00616 1.60351,2.67188 -0.17443,1.20098 0.23235,2.42103 1.11719,3.26953 0.65173,0.62492 1.49667,0.98084 2.37305,1.03906 0.60651,1.63734 2.26663,2.67514 4.02929,2.44336 1.21066,-0.15919 2.22057,-0.88571 2.79102,-1.88672 0.57045,1.00101 1.58036,1.72753 2.79102,1.88672 1.76266,0.23178 3.42278,-0.80602 4.02929,-2.44336 0.87638,-0.0582 1.72132,-0.41414 2.37305,-1.03906 0.88484,-0.8485 1.29162,-2.06855 1.11719,-3.26953 0.81438,-0.66572 1.39292,-1.60309 1.60351,-2.67188 0.32838,-1.66651 -0.2971,-3.37019 -1.60547,-4.4414 0.0982,-0.66587 0.0284,-1.35843 -0.24218,-2.00586 -0.55492,-1.32755 -1.81842,-2.20617 -3.24024,-2.30274 -0.53408,-1.44269 -1.91464,-2.48242 -3.54101,-2.48242 -1.41338,0 -2.63487,0.79023 -3.28516,1.94141 -0.65035,-1.15099 -1.87192,-1.94141 -3.28516,-1.94141 z m 0,1 c 1.54425,0 2.78516,1.23899 2.78516,2.78125 a 0.50055404,0.49992856 0 0 0 0,0.0195 l 0,13.07227 a 0.5003627,0.49973745 0 0 0 0,0.0332 c 1e-5,1.39992 -1.03221,2.57706 -2.42188,2.75977 -1.20563,0.1585 -2.34173,-0.47588 -2.85937,-1.5293 0.0631,-0.0135 0.12669,-0.0203 0.18945,-0.0371 a 0.50112819,0.50050199 0 0 0 -0.25976,-0.9668 c -0.94238,0.25219 -1.94467,-0.009 -2.64844,-0.67969 -0.54084,-0.51861 -0.83582,-1.22284 -0.84961,-1.95312 0.24498,0.11512 0.49849,0.21757 0.76563,0.28906 a 0.5003627,0.49973745 0 1 0 0.25781,-0.96484 c -1.33013,-0.35597 -2.33958,-1.43374 -2.60547,-2.7832 -0.22972,-1.16582 0.13217,-2.3542 0.94141,-3.19336 0.18278,0.3888 0.4271,0.75367 0.74218,1.06836 a 0.5003627,0.49973745 0 1 0 0.70703,-0.70704 c -0.79962,-0.79865 -1.03525,-1.99479 -0.5996,-3.0371 0.37141,-0.88857 1.1683,-1.50583 2.0957,-1.66602 -0.007,0.0924 -0.0274,0.18131 -0.0274,0.27539 a 0.50098,0.50035399 0 0 0 1.00196,0 c 0,-1.54226 1.24091,-2.78125 2.78515,-2.78125 z m 6.57032,0 c 1.54424,0 2.78515,1.23899 2.78515,2.78125 a 0.50098,0.50035399 0 0 0 1.00196,0 c 0,-0.0941 -0.0205,-0.18301 -0.0274,-0.27539 0.9274,0.16019 1.72429,0.77745 2.0957,1.66602 0.43565,1.04231 0.20002,2.23845 -0.5996,3.0371 a 0.50095157,0.50032558 0 1 0 0.70898,0.70704 c 0.31508,-0.31469 0.55745,-0.67956 0.74023,-1.06836 0.80924,0.83916 1.17113,2.02754 0.94141,3.19336 -0.26589,1.34946 -1.27534,2.42723 -2.60547,2.7832 a 0.5003627,0.49973745 0 1 0 0.25781,0.96484 c 0.26714,-0.0715 0.52065,-0.17394 0.76563,-0.28906 -0.0138,0.73028 -0.30877,1.43451 -0.84961,1.95312 -0.70377,0.67117 -1.70606,0.93188 -2.64844,0.67969 a 0.5011282,0.50050199 0 0 0 -0.25976,0.9668 c 0.0628,0.0168 0.12632,0.0236 0.18945,0.0371 -0.51764,1.05342 -1.65374,1.6878 -2.85937,1.5293 -1.38967,-0.18271 -2.42189,-1.35985 -2.42188,-2.75977 a 0.5003627,0.49973745 0 0 0 0,-0.0332 l 0,-13.07227 0,-0.0195 c 0,-1.54226 1.24091,-2.78125 2.78516,-2.78125 z" color="#000" font-family="sans-serif" font-weight="400" overflow="visible" transform="matrix(1.2174 0 0 1.21892 210.067 460.205)" white-space="normal" style="line-height:normal;text-indent:0;text-align:start;text-decoration-line:none;text-decoration-style:solid;text-decoration-color:#000;text-transform:none;block-progression:tb;isolation:auto;mix-blend-mode:normal"/><path fill="none" stroke="#df5d59" stroke-linecap="round" stroke-linejoin="round" stroke-width="1.218" d="M11.493815 1042.8658a5 5 0 0 1-3.4039709.5874M9.78856 1045.0119a3.9999998 3.9999998 0 0 1 1.705407-2.146"/><path fill="none" stroke="#df5d59" stroke-linecap="round" stroke-linejoin="round" stroke-width="1.218" d="M10.493816-1033.8585a5 5 0 0 1-3.4039715.5875M8.78856-1031.7123a3.9999998 3.9999998 0 0 1 1.705407-2.1461" transform="scale(1 -1)"/><path fill="none" stroke="#df5d59" stroke-linecap="round" stroke-linejoin="round" stroke-width="1.218" d="M5.5251733 1039.8371A3.4999914 3.4999914 0 0 1 4.6193089 1038.268M12.500041 1027.8622a2.0000086 2.0000086 0 0 1 2.000009 2M14.500041 1045.8622a2 2 0 0 1-2 2M13.031122 1033.6122a3.4999914 3.4999914 0 0 1-.556213 4.2249"/><path fill="none" stroke="#df5d59" stroke-linecap="round" stroke-linejoin="round" stroke-width="1.218" d="M-21.506146 1042.8658a5 5 0 0 1-3.403971.5874M-23.211523 1045.0119a3.9999998 3.9999998 0 0 1 1.705407-2.146" transform="scale(-1 1)"/><path fill="none" stroke="#df5d59" stroke-linecap="round" stroke-linejoin="round" stroke-width="1.218" d="M-22.506146-1033.8585a5 5 0 0 1-3.403971.5875M-24.211523-1031.7123a3.9999998 3.9999998 0 0 1 1.705407-2.1461" transform="scale(-1)"/><path fill="none" stroke="#df5d59" stroke-linecap="round" stroke-linejoin="round" stroke-width="1.218" d="M-27.474788 1039.8371a3.4999914 3.4999914 0 0 1-.905864-1.5691M-20.500042 1027.8622a2.0000086 2.0000086 0 0 1 2.000009 2M-18.500042 1045.8622a2 2 0 0 1-2 2M-19.968838 1033.6122a3.4999914 3.4999914 0 0 1-.556214 4.2249" transform="scale(-1 1)"/></g></svg>