<?xml version="1.0" encoding="UTF-8"?>
<svg xmlns="http://www.w3.org/2000/svg" xmlns:xlink="http://www.w3.org/1999/xlink" width="256pt" height="256pt" viewBox="0 0 256 256" version="1.1">
<g id="surface4012696">
<path style=" stroke:none;fill-rule:nonzero;fill:rgb(92.54902%,10.980392%,14.117648%);fill-opacity:1;" d="M 149.332031 205.332031 C 149.332031 218.589844 138.589844 229.332031 125.332031 229.332031 C 112.078125 229.332031 101.332031 218.589844 101.332031 205.332031 C 101.332031 192.078125 112.078125 181.332031 125.332031 181.332031 C 138.589844 181.332031 149.332031 192.078125 149.332031 205.332031 Z M 149.332031 205.332031 "/>
<path style=" stroke:none;fill-rule:nonzero;fill:rgb(92.54902%,10.980392%,14.117648%);fill-opacity:1;" d="M 144 37.332031 L 106.667969 37.332031 C 105.210938 37.332031 103.820312 37.925781 102.8125 38.976562 C 101.804688 40.027344 101.269531 41.441406 101.332031 42.894531 L 106.667969 165.5625 C 106.789062 168.417969 109.140625 170.667969 112 170.667969 L 138.667969 170.667969 C 141.523438 170.667969 143.878906 168.417969 144 165.5625 L 149.332031 42.894531 C 149.394531 41.441406 148.863281 40.027344 147.855469 38.976562 C 146.847656 37.925781 145.457031 37.332031 144 37.332031 Z M 144 37.332031 "/>
</g>
</svg>
