<?xml version="1.0" encoding="UTF-8"?>
<svg xmlns="http://www.w3.org/2000/svg" xmlns:xlink="http://www.w3.org/1999/xlink" width="250pt" height="250pt" viewBox="0 0 250 250" version="1.1">
<g id="surface4354658">
<path style=" stroke:none;fill-rule:nonzero;fill:rgb(24.313726%,28.235295%,40.784314%);fill-opacity:1;" d="M 25 224.980469 C 24.921875 224.980469 24.863281 224.980469 24.785156 224.980469 C 22.089844 224.863281 19.960938 222.636719 20 219.941406 C 20.019531 218.710938 22.890625 98.398438 140 95.078125 L 140 60 C 140 58.066406 141.113281 56.308594 142.851562 55.488281 C 144.570312 54.648438 146.660156 54.902344 148.144531 56.113281 L 228.144531 121.113281 C 229.316406 122.070312 230 123.496094 230 125 C 230 126.503906 229.316406 127.929688 228.164062 128.886719 L 148.164062 193.886719 C 146.660156 195.097656 144.589844 195.332031 142.851562 194.511719 C 141.113281 193.691406 140 191.933594 140 190 L 140 155.039062 C 35.800781 156.933594 30.175781 217.714844 29.980469 220.332031 C 29.804688 222.96875 27.617188 224.980469 25 224.980469 Z M 25 224.980469 "/>
</g>
</svg>
