<svg xmlns="http://www.w3.org/2000/svg" id="Layer_1" enable-background="new 0 0 32 32" viewBox="0 0 32 32"><path fill="#c7c5cd" d="M12.5,7.804c-4.418,0-8,3.582-8,8s3.582,8,8,8s8-3.582,8-8S16.918,7.804,12.5,7.804z M9.313,19.317      c-0.722,0.406-1.637,0.15-2.043-0.572s-0.15-1.637,0.572-2.043s1.637-0.15,2.043,0.572S10.035,18.911,9.313,19.317z       M9.885,14.334c-0.406,0.722-1.321,0.978-2.043,0.572s-0.978-1.32-0.572-2.043s1.321-0.978,2.043-0.572      S10.291,13.612,9.885,14.334z M12.5,21.804c-0.828,0-1.5-0.672-1.5-1.5s0.672-1.5,1.5-1.5s1.5,0.672,1.5,1.5      S13.328,21.804,12.5,21.804z M11.5,15.804c0-0.552,0.448-1,1-1s1,0.448,1,1c0,0.552-0.448,1-1,1S11.5,16.356,11.5,15.804z       M12.5,12.804c-0.828,0-1.5-0.672-1.5-1.5s0.672-1.5,1.5-1.5s1.5,0.672,1.5,1.5S13.328,12.804,12.5,12.804z M17.73,18.745      c-0.406,0.722-1.321,0.978-2.043,0.572s-0.978-1.32-0.572-2.043s1.321-0.978,2.043-0.572S18.136,18.023,17.73,18.745z       M17.158,14.906c-0.722,0.406-1.637,0.15-2.043-0.572s-0.15-1.637,0.572-2.043s1.637-0.15,2.043,0.572S17.88,14.5,17.158,14.906      z"/><path fill="#e1e2e7" d="M18.116,10.11l-2.035,2.035c0.633-0.148,1.314,0.123,1.649,0.719c0.406,0.722,0.15,1.637-0.572,2.043      s-1.637,0.15-2.043-0.572c-0.191-0.34-0.231-0.722-0.149-1.074l-1.806,1.806c0.205,0.183,0.339,0.442,0.339,0.738      c0,0.552-0.448,1-1,1c-0.296,0-0.555-0.135-0.738-0.339l-1.694,1.694c-0.047,0.469-0.313,0.91-0.755,1.159      c-0.187,0.105-0.387,0.164-0.587,0.184L6.806,21.42c1.451,1.471,3.465,2.384,5.694,2.384c4.418,0,8-3.582,8-8      C20.5,13.575,19.587,11.561,18.116,10.11z M12.5,21.804c-0.828,0-1.5-0.672-1.5-1.5s0.672-1.5,1.5-1.5s1.5,0.672,1.5,1.5      S13.328,21.804,12.5,21.804z M17.73,18.745c-0.406,0.722-1.321,0.978-2.043,0.572s-0.978-1.32-0.572-2.043      s1.321-0.978,2.043-0.572S18.136,18.023,17.73,18.745z"/><path fill="#787882" d="M12.5,24.304c-4.687,0-8.5-3.813-8.5-8.5s3.813-8.5,8.5-8.5s8.5,3.813,8.5,8.5S17.187,24.304,12.5,24.304z       M12.5,8.304c-4.136,0-7.5,3.364-7.5,7.5s3.364,7.5,7.5,7.5s7.5-3.364,7.5-7.5S16.636,8.304,12.5,8.304z"/><path fill="#787882" d="M12.5 17.304c-.827 0-1.5-.673-1.5-1.5s.673-1.5 1.5-1.5 1.5.673 1.5 1.5S13.327 17.304 12.5 17.304zM12.5 15.304c-.275 0-.5.224-.5.5s.225.5.5.5.5-.224.5-.5S12.775 15.304 12.5 15.304zM12.5 13.304c-1.103 0-2-.897-2-2s.897-2 2-2 2 .897 2 2S13.603 13.304 12.5 13.304zM12.5 10.304c-.552 0-1 .449-1 1s.448 1 1 1 1-.449 1-1S13.052 10.304 12.5 10.304zM12.5 22.304c-1.103 0-2-.897-2-2s.897-2 2-2 2 .897 2 2S13.603 22.304 12.5 22.304zM12.5 19.304c-.552 0-1 .449-1 1s.448 1 1 1 1-.449 1-1S13.052 19.304 12.5 19.304zM8.574 15.6c-.339 0-.673-.087-.977-.258-.961-.54-1.304-1.761-.765-2.723.263-.466.69-.802 1.205-.946.514-.144 1.053-.079 1.52.183l0 0c0 0 0 0 0 0l0 0c.466.262.802.689.946 1.203.144.515.079 1.054-.184 1.52-.262.466-.689.801-1.203.946C8.937 15.575 8.756 15.6 8.574 15.6zM8.579 12.599c-.091 0-.182.012-.271.037-.258.072-.472.24-.603.473-.27.48-.098 1.091.383 1.361.232.131.504.163.759.092.258-.072.472-.24.603-.473s.163-.503.091-.76c-.071-.257-.239-.471-.473-.602 0 0 0 0 0 0C8.916 12.642 8.748 12.599 8.579 12.599zM16.42 20.01c-.34 0-.674-.087-.978-.258-.466-.261-.802-.689-.946-1.203-.144-.515-.079-1.054.184-1.52.262-.466.689-.801 1.203-.946.515-.144 1.053-.08 1.52.183.961.54 1.304 1.761.765 2.723-.263.466-.69.802-1.205.946C16.783 19.985 16.601 20.01 16.42 20.01zM16.424 17.009c-.091 0-.182.012-.271.037-.258.072-.472.24-.603.473s-.163.503-.091.76c.071.257.239.471.473.602.232.131.503.163.76.092.258-.072.472-.24.603-.473.27-.48.098-1.091-.383-1.361v0C16.761 17.053 16.593 17.009 16.424 17.009z"/><path fill="#787882" d="M8.574 15.6c-.339 0-.673-.087-.977-.258-.961-.54-1.304-1.761-.765-2.723.263-.466.69-.802 1.205-.946.514-.144 1.053-.079 1.52.183l0 0c0 0 0 0 0 0l0 0c.466.262.802.689.946 1.203.144.515.079 1.054-.184 1.52-.262.466-.689.801-1.203.946C8.937 15.575 8.756 15.6 8.574 15.6zM8.579 12.599c-.091 0-.182.012-.271.037-.258.072-.472.24-.603.473-.27.48-.098 1.091.383 1.361.232.131.504.163.759.092.258-.072.472-.24.603-.473s.163-.503.091-.76c-.071-.257-.239-.471-.473-.602 0 0 0 0 0 0C8.916 12.642 8.748 12.599 8.579 12.599zM16.42 20.01c-.34 0-.674-.087-.978-.258-.466-.261-.802-.689-.946-1.203-.144-.515-.079-1.054.184-1.52.262-.466.689-.801 1.203-.946.515-.144 1.053-.08 1.52.183.961.54 1.304 1.761.765 2.723-.263.466-.69.802-1.205.946C16.783 19.985 16.601 20.01 16.42 20.01zM16.424 17.009c-.091 0-.182.012-.271.037-.258.072-.472.24-.603.473s-.163.503-.091.76c.071.257.239.471.473.602.232.131.503.163.76.092.258-.072.472-.24.603-.473.27-.48.098-1.091-.383-1.361v0C16.761 17.053 16.593 17.009 16.424 17.009zM8.58 20.01c-.181 0-.363-.025-.542-.075-.515-.145-.942-.48-1.204-.946-.54-.962-.197-2.184.764-2.724.466-.263 1.005-.327 1.52-.183.514.145.941.48 1.203.946.263.466.327 1.005.184 1.52-.145.514-.48.941-.946 1.203l0 0c0 0 0 0 0 0C9.254 19.923 8.919 20.01 8.58 20.01zM8.576 17.009c-.169 0-.337.043-.488.128-.48.271-.652.881-.383 1.362.131.232.345.4.603.473.257.071.527.039.76-.091v0c.233-.131.401-.344.473-.602.072-.257.04-.527-.091-.76s-.345-.401-.603-.473C8.758 17.021 8.667 17.009 8.576 17.009zM16.426 15.6c-.182 0-.363-.025-.543-.075-.514-.145-.941-.48-1.203-.946-.263-.466-.327-1.005-.184-1.52.145-.514.48-.942.946-1.204.465-.262 1.004-.329 1.52-.183.515.145.942.48 1.204.946.54.962.197 2.184-.764 2.723l0 0C17.099 15.513 16.765 15.6 16.426 15.6zM16.421 12.599c-.169 0-.337.043-.488.128-.233.131-.401.345-.473.602-.072.257-.04.527.091.76s.345.401.603.473c.254.071.525.039.759-.091 0 0 0 0 0 0 .48-.27.652-.881.383-1.362-.131-.232-.345-.4-.603-.473C16.603 12.611 16.512 12.599 16.421 12.599z"/><path fill="#787882" d="M17.5,24.304H13c-0.276,0-0.5-0.224-0.5-0.5s0.224-0.5,0.5-0.5h4.5c3.032,0,5.5-2.467,5.5-5.5v-4      c0-0.276,0.224-0.5,0.5-0.5s0.5,0.224,0.5,0.5v4C24,21.388,21.084,24.304,17.5,24.304z"/><path fill="#787882" d="M23.5,17.304c-0.276,0-0.5-0.224-0.5-0.5v-6c0-1.93,1.57-3.5,3.5-3.5c0.276,0,0.5,0.224,0.5,0.5      s-0.224,0.5-0.5,0.5c-1.379,0-2.5,1.122-2.5,2.5v6C24,17.081,23.776,17.304,23.5,17.304z"/></svg>