<svg xmlns="http://www.w3.org/2000/svg" width="32" height="32" viewBox="0 0 32 32"><g transform="translate(1629.575 243.736)"><path fill="#ffb1b1" d="M-1615.2338-237.7364a1.2499986 1.2499986 0 0 1-1.25 1.25 1.2499986 1.2499986 0 0 1-1.25-1.25 1.2499986 1.2499986 0 0 1 1.25-1.25 1.2499986 1.2499986 0 0 1 1.25 1.25zM-1610.5754-240.2364a1.2499986 1.2499986 0 0 1-1.25 1.25 1.2499986 1.2499986 0 0 1-1.25-1.25 1.2499986 1.2499986 0 0 1 1.25-1.25 1.2499986 1.2499986 0 0 1 1.25 1.25zM-1611.0754-235.2364a1.2499986 1.2499986 0 0 1-1.25 1.25 1.2499986 1.2499986 0 0 1-1.25-1.25 1.2499986 1.2499986 0 0 1 1.25-1.25 1.2499986 1.2499986 0 0 1 1.25 1.25z"/><g stroke="#586597" transform="translate(-2163.325 -1039.349)"><g transform="translate(533.75 -224.5)"><path fill="#d1edf1" stroke="none" d="m -1616.5762,-1251.5977 c 0,0 -2e-4,4.1035 0,6.9981 h 6 c 0,-2.8945 0,-6.9981 0,-6.9981 z" transform="translate(1629.575 2284.21)"/><path fill="#fe8099" stroke="none" d="m 13,1039.6118 c 0,0 0.0015,2.5024 3e-6,7.2534 0.0016,1.6558 1.344404,2.9972 3.000207,2.9971 1.655836,-10e-5 2.998466,-1.3418 2.999791,-2.9976 -1.57e-4,-4.7508 -1e-6,-7.2529 -1e-6,-7.2529"/><path fill="none" stroke-linecap="round" stroke-linejoin="round" d="M18.5 1028.6122a1.2499998 1.2499999 0 0 1-1.25 1.25 1.2499998 1.2499999 0 0 1-1.25-1.25 1.2499998 1.2499999 0 0 1 1.25-1.25 1.2499998 1.2499999 0 0 1 1.25 1.25zM11.257019 1032.3621h9.485967M13.25 1039.3622h5.5M19 1023.6122a1.2499998 1.2499999 0 0 1-1.25 1.25 1.2499998 1.2499999 0 0 1-1.25-1.25 1.2499998 1.2499999 0 0 1 1.25-1.25 1.2499998 1.2499999 0 0 1 1.25 1.25zM13 1032.6122l.000003 14.253c.0016 1.6558 1.344404 2.9972 3.000207 2.9971 1.655836-.0001 2.998466-1.3418 2.999791-2.9976l-.000101-2.0024m0-4l.0001-8.2501M14.341627 1026.1122a1.2499998 1.2499999 0 0 1-1.25 1.25 1.2499998 1.2499999 0 0 1-1.25-1.25 1.2499998 1.2499999 0 0 1 1.25-1.25 1.2499998 1.2499999 0 0 1 1.25 1.25z"/></g><path fill="#586597" stroke="none" d="m 552.25,818.3622 c 0,-0.2761 0.22386,-0.5 0.5,-0.5 0.27614,0 0.5,0.2239 0.5,0.5 0,0.2761 -0.22386,0.5 -0.5,0.5 -0.27614,0 -0.5,-0.2239 -0.5,-0.5 z"/></g></g></svg>