<?xml version="1.0" encoding="UTF-8"?><svg height="512px" xmlns="http://www.w3.org/2000/svg" xmlns:xlink="http://www.w3.org/1999/xlink" version="1.1" id="Layer_1" x="0px" y="0px" viewBox="0 0 24 24" xml:space="preserve"><path fill="#303C42" d="M12 0C5.383 0 0 5.383 0 12s5.383 12 12 12 12-5.383 12-12S18.617 0 12 0z"/><path fill="#E6E6E6" d="M12 23C5.935 23 1 18.065 1 12S5.935 1 12 1s11 4.935 11 11-4.935 11-11 11z"/><path opacity="0.1" d="M2 13C2 6.935 6.935 2 13 2c2.779 0 5.312 1.044 7.25 2.75C18.234 2.456 15.288 1 12 1 5.935 1 1 5.935 1 12c0 3.287 1.457 6.233 3.75 8.25A10.942 10.942 0 0 1 2 13z"/><linearGradient id="SVGID_1_" gradientUnits="userSpaceOnUse" x1="9.8280945" y1="5.9203796" x2="21.724968" y2="17.8172531"><stop offset="0" stop-color="#000" stop-opacity="0.1"/><stop offset="1" stop-color="#000" stop-opacity="0"/></linearGradient><path fill="url(#SVGID_1_)" d="M12.454 3.295a.494.494 0 0 1 .046.205v7.654c.293.174.5.48.5.846 0 .086-.029.164-.05.244l3.904 3.902a.5.5 0 1 1-.708.708l-3.902-3.903c-.08.02-.158.049-.244.049a.973.973 0 0 1-.461-.128v.01l7.532 7.532a10.989 10.989 0 0 0 3.784-6.718L12.454 3.295z"/><path fill="#303C42" d="M12.95 12.244c.021-.08.05-.158.05-.244a.987.987 0 0 0-.5-.846V3.5a.5.5 0 1 0-1 0v7.654A.987.987 0 0 0 11 12c0 .551.449 1 1 1 .086 0 .164-.029.244-.05l3.902 3.904a.498.498 0 0 0 .708 0 .5.5 0 0 0 0-.708l-3.903-3.902z"/><linearGradient id="SVGID_2_" gradientUnits="userSpaceOnUse" x1="1.1249185" y1="6.9288664" x2="22.875082" y2="17.0711346"><stop offset="0" stop-color="#FFF" stop-opacity="0.2"/><stop offset="1" stop-color="#FFF" stop-opacity="0"/></linearGradient><path fill="url(#SVGID_2_)" d="M12 0C5.383 0 0 5.383 0 12s5.383 12 12 12 12-5.383 12-12S18.617 0 12 0z"/><metadata><rdf:RDF xmlns:rdf="http://www.w3.org/1999/02/22-rdf-syntax-ns#" xmlns:rdfs="http://www.w3.org/2000/01/rdf-schema#" xmlns:dc="http://purl.org/dc/elements/1.1/"><rdf:Description about="https://iconscout.com/legal#licenses" dc:title="time,clock,watch,cronometer" dc:description="time,clock,watch,cronometer" dc:publisher="Iconscout" dc:date="2017-08-16" dc:format="image/svg+xml" dc:language="en"><dc:creator><rdf:Bag><rdf:li>Those Icons</rdf:li></rdf:Bag></dc:creator></rdf:Description></rdf:RDF></metadata></svg>